<?xml version="1.0" encoding="UTF-8" standalone="no"?>
<!DOCTYPE svg PUBLIC "-//W3C//DTD SVG 1.1//EN"
 "http://www.w3.org/Graphics/SVG/1.1/DTD/svg11.dtd">
<!-- Generated by graphviz version 2.40.1 (20161225.0304)
 -->
<!-- Title: G Pages: 1 -->
<svg width="448pt" height="260pt"
 viewBox="0.00 0.00 447.91 260.00" xmlns="http://www.w3.org/2000/svg" xmlns:xlink="http://www.w3.org/1999/xlink">
<g id="graph0" class="graph" transform="scale(1 1) rotate(0) translate(4 256)">
<title>G</title>
<polygon fill="#ffffff" stroke="transparent" points="-4,4 -4,-256 443.9081,-256 443.9081,4 -4,4"/>
<!-- audio_0 -->
<g id="node1" class="node">
<title>audio_0</title>
<ellipse fill="none" stroke="#000000" cx="110.0497" cy="-234" rx="46.2923" ry="18"/>
<text text-anchor="middle" x="110.0497" y="-230.3" font-family="Times,serif" font-size="14.00" fill="#000000">Modem 1</text>
</g>
<!-- jack_thread_0 -->
<g id="node4" class="node">
<title>jack_thread_0</title>
<polygon fill="none" stroke="#000000" points="150.5497,-180 47.5497,-180 47.5497,-144 150.5497,-144 150.5497,-180"/>
<text text-anchor="middle" x="99.0497" y="-158.3" font-family="Times,serif" font-size="14.00" fill="#000000">Jack Interface 1</text>
</g>
<!-- audio_0&#45;&gt;jack_thread_0 -->
<g id="edge1" class="edge">
<title>audio_0&#45;&gt;jack_thread_0</title>
<path fill="none" stroke="#0000ff" stroke-dasharray="5,2" d="M107.274,-215.8314C106.0975,-208.131 104.6986,-198.9743 103.3912,-190.4166"/>
<polygon fill="#0000ff" stroke="#0000ff" points="106.8331,-189.7699 101.8629,-180.4133 99.9134,-190.8272 106.8331,-189.7699"/>
</g>
<!-- audio_1 -->
<g id="node2" class="node">
<title>audio_1</title>
<ellipse fill="none" stroke="#000000" cx="220.0497" cy="-234" rx="46.2923" ry="18"/>
<text text-anchor="middle" x="220.0497" y="-230.3" font-family="Times,serif" font-size="14.00" fill="#000000">Modem 2</text>
</g>
<!-- jack_thread_1 -->
<g id="node9" class="node">
<title>jack_thread_1</title>
<polygon fill="none" stroke="#000000" points="392.5497,-180 289.5497,-180 289.5497,-144 392.5497,-144 392.5497,-180"/>
<text text-anchor="middle" x="341.0497" y="-158.3" font-family="Times,serif" font-size="14.00" fill="#000000">Jack Interface 2</text>
</g>
<!-- audio_1&#45;&gt;jack_thread_1 -->
<g id="edge9" class="edge">
<title>audio_1&#45;&gt;jack_thread_1</title>
<path fill="none" stroke="#000000" stroke-dasharray="5,2" d="M245.4153,-218.9064C261.733,-209.1967 283.2692,-196.3818 301.7725,-185.3716"/>
<polygon fill="#000000" stroke="#000000" points="303.7722,-188.2545 310.5761,-180.133 300.1927,-182.2389 303.7722,-188.2545"/>
</g>
<!-- audio_2 -->
<g id="node3" class="node">
<title>audio_2</title>
<ellipse fill="none" stroke="#000000" cx="330.0497" cy="-234" rx="46.2923" ry="18"/>
<text text-anchor="middle" x="330.0497" y="-230.3" font-family="Times,serif" font-size="14.00" fill="#000000">Modem 3</text>
</g>
<!-- jack_thread_2 -->
<g id="node10" class="node">
<title>jack_thread_2</title>
<polygon fill="none" stroke="#000000" points="271.5497,-180 168.5497,-180 168.5497,-144 271.5497,-144 271.5497,-180"/>
<text text-anchor="middle" x="220.0497" y="-158.3" font-family="Times,serif" font-size="14.00" fill="#000000">Jack Interface 3</text>
</g>
<!-- audio_2&#45;&gt;jack_thread_2 -->
<g id="edge17" class="edge">
<title>audio_2&#45;&gt;jack_thread_2</title>
<path fill="none" stroke="#ff0000" stroke-dasharray="5,2" d="M306.1814,-218.3771C291.6799,-208.8852 272.8731,-196.5753 256.5343,-185.8808"/>
<polygon fill="#ff0000" stroke="#ff0000" points="258.038,-182.6819 247.7541,-180.1338 254.2043,-188.5389 258.038,-182.6819"/>
</g>
<!-- jack_thread_0&#45;&gt;audio_1 -->
<g id="edge14" class="edge">
<title>jack_thread_0&#45;&gt;audio_1</title>
<path fill="none" stroke="#7fffd4" stroke-dasharray="5,2" d="M129.5233,-180.133C146.656,-190.3277 168.0923,-203.0832 185.8041,-213.6224"/>
<polygon fill="#7fffd4" stroke="#7fffd4" points="184.3007,-216.8006 194.6842,-218.9064 187.8803,-210.785 184.3007,-216.8006"/>
</g>
<!-- jack_thread_0&#45;&gt;audio_2 -->
<g id="edge22" class="edge">
<title>jack_thread_0&#45;&gt;audio_2</title>
<path fill="none" stroke="#00ff00" stroke-dasharray="5,2" d="M150.7263,-177.5794C185.8396,-188.233 233.3098,-202.7678 275.0497,-216 278.309,-217.0332 281.6736,-218.1099 285.0581,-219.2001"/>
<polygon fill="#00ff00" stroke="#00ff00" points="283.9855,-222.5316 294.5774,-222.2837 286.1428,-215.8723 283.9855,-222.5316"/>
</g>
<!-- detector_thread_0 -->
<g id="node5" class="node">
<title>detector_thread_0</title>
<polygon fill="none" stroke="#000000" points="89.0497,-108 15.0497,-108 15.0497,-72 89.0497,-72 89.0497,-108"/>
<text text-anchor="middle" x="52.0497" y="-86.3" font-family="Times,serif" font-size="14.00" fill="#000000">Detector 1</text>
</g>
<!-- jack_thread_0&#45;&gt;detector_thread_0 -->
<g id="edge2" class="edge">
<title>jack_thread_0&#45;&gt;detector_thread_0</title>
<path fill="none" stroke="#0000ff" d="M87.1896,-143.8314C81.8868,-135.7079 75.5261,-125.9637 69.6824,-117.0118"/>
<polygon fill="#0000ff" stroke="#0000ff" points="72.4666,-114.8739 64.0695,-108.4133 66.6049,-118.7003 72.4666,-114.8739"/>
</g>
<!-- processor_thread_1 -->
<g id="node7" class="node">
<title>processor_thread_1</title>
<polygon fill="none" stroke="#000000" points="143.0497,-36 63.0497,-36 63.0497,0 143.0497,0 143.0497,-36"/>
<text text-anchor="middle" x="103.0497" y="-14.3" font-family="Times,serif" font-size="14.00" fill="#000000">Processor 2</text>
</g>
<!-- detector_thread_0&#45;&gt;processor_thread_1 -->
<g id="edge3" class="edge">
<title>detector_thread_0&#45;&gt;processor_thread_1</title>
<path fill="none" stroke="#7fffd4" d="M64.9192,-71.8314C70.7333,-63.6232 77.7193,-53.7606 84.1144,-44.7323"/>
<polygon fill="#7fffd4" stroke="#7fffd4" points="87.0829,-46.5966 90.007,-36.4133 81.3707,-42.5505 87.0829,-46.5966"/>
</g>
<!-- processor_thread_2 -->
<g id="node8" class="node">
<title>processor_thread_2</title>
<polygon fill="none" stroke="#000000" points="278.0497,-36 198.0497,-36 198.0497,0 278.0497,0 278.0497,-36"/>
<text text-anchor="middle" x="238.0497" y="-14.3" font-family="Times,serif" font-size="14.00" fill="#000000">Processor 3</text>
</g>
<!-- detector_thread_0&#45;&gt;processor_thread_2 -->
<g id="edge4" class="edge">
<title>detector_thread_0&#45;&gt;processor_thread_2</title>
<path fill="none" stroke="#00ff00" d="M89.2426,-75.6028C117.7771,-64.5572 157.4344,-49.2059 188.6344,-37.1285"/>
<polygon fill="#00ff00" stroke="#00ff00" points="189.9618,-40.3678 198.024,-33.4938 187.4348,-33.8398 189.9618,-40.3678"/>
</g>
<!-- processor_thread_0 -->
<g id="node6" class="node">
<title>processor_thread_0</title>
<polygon fill="none" stroke="#000000" points="395.0497,-36 315.0497,-36 315.0497,0 395.0497,0 395.0497,-36"/>
<text text-anchor="middle" x="355.0497" y="-14.3" font-family="Times,serif" font-size="14.00" fill="#000000">Processor 1</text>
</g>
<!-- processor_thread_0&#45;&gt;jack_thread_1 -->
<g id="edge5" class="edge">
<title>processor_thread_0&#45;&gt;jack_thread_1</title>
<path fill="none" stroke="#000000" d="M395.3353,-35.3659C410.3066,-44.0417 425.6754,-56.1319 434.0497,-72 441.5176,-86.1503 442.0326,-94.1337 434.0497,-108 426.5568,-121.0151 414.591,-131.1826 401.7028,-139.007"/>
<polygon fill="#000000" stroke="#000000" points="399.6954,-136.1194 392.6765,-144.0557 403.1126,-142.2287 399.6954,-136.1194"/>
</g>
<!-- processor_thread_0&#45;&gt;jack_thread_2 -->
<g id="edge7" class="edge">
<title>processor_thread_0&#45;&gt;jack_thread_2</title>
<path fill="none" stroke="#ffa500" d="M338.0907,-36.0896C314.4301,-61.3276 271.3814,-107.2462 244.3253,-136.1061"/>
<polygon fill="#ffa500" stroke="#ffa500" points="241.4336,-134.0731 237.1476,-143.7623 246.5404,-138.8607 241.4336,-134.0731"/>
</g>
<!-- processor_thread_1&#45;&gt;jack_thread_0 -->
<g id="edge13" class="edge">
<title>processor_thread_1&#45;&gt;jack_thread_0</title>
<path fill="none" stroke="#7fffd4" d="M62.9337,-29.4362C42.0467,-37.6554 18.3563,-51.0639 6.0497,-72 -2.0583,-85.7935 -1.9332,-94.1337 6.0497,-108 13.5426,-121.0151 25.5085,-131.1826 38.3967,-139.007"/>
<polygon fill="#7fffd4" stroke="#7fffd4" points="36.9868,-142.2287 47.423,-144.0557 40.404,-136.1194 36.9868,-142.2287"/>
</g>
<!-- processor_thread_1&#45;&gt;jack_thread_2 -->
<g id="edge15" class="edge">
<title>processor_thread_1&#45;&gt;jack_thread_2</title>
<path fill="none" stroke="#ffc0cb" d="M116.9973,-36.0881C131.1735,-54.3754 153.8605,-83.3756 174.0497,-108 181.5823,-117.1873 189.9699,-127.1186 197.4985,-135.9285"/>
<polygon fill="#ffc0cb" stroke="#ffc0cb" points="194.9548,-138.3388 204.1219,-143.6505 200.268,-133.7814 194.9548,-138.3388"/>
</g>
<!-- processor_thread_2&#45;&gt;jack_thread_0 -->
<g id="edge21" class="edge">
<title>processor_thread_2&#45;&gt;jack_thread_0</title>
<path fill="none" stroke="#00ff00" d="M214.6861,-36.0671C202.1704,-46.1452 186.7576,-59.2142 174.0497,-72 153.9072,-92.2661 133.2859,-117.3926 118.7771,-135.9419"/>
<polygon fill="#00ff00" stroke="#00ff00" points="115.9223,-133.9119 112.5647,-143.9607 121.4559,-138.199 115.9223,-133.9119"/>
</g>
<!-- processor_thread_2&#45;&gt;jack_thread_1 -->
<g id="edge23" class="edge">
<title>processor_thread_2&#45;&gt;jack_thread_1</title>
<path fill="none" stroke="#000000" d="M250.9888,-36.0896C268.8867,-61.1119 301.3252,-106.4628 321.9964,-135.3623"/>
<polygon fill="#000000" stroke="#000000" points="319.3402,-137.665 328.0047,-143.7623 325.0337,-133.5925 319.3402,-137.665"/>
</g>
<!-- jack_thread_1&#45;&gt;audio_0 -->
<g id="edge6" class="edge">
<title>jack_thread_1&#45;&gt;audio_0</title>
<path fill="none" stroke="#000000" stroke-dasharray="5,2" d="M289.3732,-177.5794C254.2599,-188.233 206.7897,-202.7678 165.0497,-216 161.7905,-217.0332 158.4258,-218.1099 155.0414,-219.2001"/>
<polygon fill="#000000" stroke="#000000" points="153.9567,-215.8723 145.522,-222.2837 156.114,-222.5316 153.9567,-215.8723"/>
</g>
<!-- jack_thread_1&#45;&gt;audio_2 -->
<g id="edge24" class="edge">
<title>jack_thread_1&#45;&gt;audio_2</title>
<path fill="none" stroke="#000000" stroke-dasharray="5,2" d="M338.2366,-180.4133C337.0555,-188.1442 335.6552,-197.3097 334.3497,-205.8545"/>
<polygon fill="#000000" stroke="#000000" points="330.876,-205.4174 332.8255,-215.8314 337.7957,-206.4747 330.876,-205.4174"/>
</g>
<!-- detector_thread_1 -->
<g id="node11" class="node">
<title>detector_thread_1</title>
<polygon fill="none" stroke="#000000" points="425.0497,-108 351.0497,-108 351.0497,-72 425.0497,-72 425.0497,-108"/>
<text text-anchor="middle" x="388.0497" y="-86.3" font-family="Times,serif" font-size="14.00" fill="#000000">Detector 2</text>
</g>
<!-- jack_thread_1&#45;&gt;detector_thread_1 -->
<g id="edge10" class="edge">
<title>jack_thread_1&#45;&gt;detector_thread_1</title>
<path fill="none" stroke="#000000" d="M352.9098,-143.8314C358.2127,-135.7079 364.5734,-125.9637 370.417,-117.0118"/>
<polygon fill="#000000" stroke="#000000" points="373.4945,-118.7003 376.03,-108.4133 367.6329,-114.8739 373.4945,-118.7003"/>
</g>
<!-- jack_thread_2&#45;&gt;audio_0 -->
<g id="edge8" class="edge">
<title>jack_thread_2&#45;&gt;audio_0</title>
<path fill="none" stroke="#ffa500" stroke-dasharray="5,2" d="M192.3454,-180.1338C177.1529,-190.0779 158.2381,-202.4585 142.3744,-212.842"/>
<polygon fill="#ffa500" stroke="#ffa500" points="140.3683,-209.972 133.9181,-218.3771 144.2019,-215.8289 140.3683,-209.972"/>
</g>
<!-- jack_thread_2&#45;&gt;audio_1 -->
<g id="edge16" class="edge">
<title>jack_thread_2&#45;&gt;audio_1</title>
<path fill="none" stroke="#ffc0cb" stroke-dasharray="5,2" d="M220.0497,-180.4133C220.0497,-188.0593 220.0497,-197.1084 220.0497,-205.5726"/>
<polygon fill="#ffc0cb" stroke="#ffc0cb" points="216.5498,-205.8313 220.0497,-215.8314 223.5498,-205.8314 216.5498,-205.8313"/>
</g>
<!-- detector_thread_2 -->
<g id="node12" class="node">
<title>detector_thread_2</title>
<polygon fill="none" stroke="#000000" points="257.0497,-108 183.0497,-108 183.0497,-72 257.0497,-72 257.0497,-108"/>
<text text-anchor="middle" x="220.0497" y="-86.3" font-family="Times,serif" font-size="14.00" fill="#000000">Detector 3</text>
</g>
<!-- jack_thread_2&#45;&gt;detector_thread_2 -->
<g id="edge18" class="edge">
<title>jack_thread_2&#45;&gt;detector_thread_2</title>
<path fill="none" stroke="#ff0000" d="M220.0497,-143.8314C220.0497,-136.131 220.0497,-126.9743 220.0497,-118.4166"/>
<polygon fill="#ff0000" stroke="#ff0000" points="223.5498,-118.4132 220.0497,-108.4133 216.5498,-118.4133 223.5498,-118.4132"/>
</g>
<!-- detector_thread_1&#45;&gt;processor_thread_0 -->
<g id="edge11" class="edge">
<title>detector_thread_1&#45;&gt;processor_thread_0</title>
<path fill="none" stroke="#000000" d="M379.7224,-71.8314C376.0767,-63.8771 371.7189,-54.369 367.687,-45.5723"/>
<polygon fill="#000000" stroke="#000000" points="370.8375,-44.0456 363.4891,-36.4133 364.474,-46.9622 370.8375,-44.0456"/>
</g>
<!-- detector_thread_1&#45;&gt;processor_thread_2 -->
<g id="edge12" class="edge">
<title>detector_thread_1&#45;&gt;processor_thread_2</title>
<path fill="none" stroke="#000000" d="M350.9711,-72.2022C331.0198,-62.6256 306.21,-50.7169 284.9312,-40.5031"/>
<polygon fill="#000000" stroke="#000000" points="286.2735,-37.2652 275.7437,-36.0931 283.2444,-43.5758 286.2735,-37.2652"/>
</g>
<!-- detector_thread_2&#45;&gt;processor_thread_0 -->
<g id="edge19" class="edge">
<title>detector_thread_2&#45;&gt;processor_thread_0</title>
<path fill="none" stroke="#ffa500" d="M254.1159,-71.8314C271.703,-62.4516 293.3413,-50.9112 312.0666,-40.9244"/>
<polygon fill="#ffa500" stroke="#ffa500" points="313.818,-43.957 320.9944,-36.1628 310.5238,-37.7805 313.818,-43.957"/>
</g>
<!-- detector_thread_2&#45;&gt;processor_thread_1 -->
<g id="edge20" class="edge">
<title>detector_thread_2&#45;&gt;processor_thread_1</title>
<path fill="none" stroke="#ffc0cb" d="M190.5257,-71.8314C175.5607,-62.6221 157.2111,-51.3301 141.1895,-41.4706"/>
<polygon fill="#ffc0cb" stroke="#ffc0cb" points="142.9153,-38.423 132.5643,-36.1628 139.2466,-44.3847 142.9153,-38.423"/>
</g>
</g>
</svg>
